<?xml version="1.0" encoding="utf-8"?>
<!-- Generator: Adobe Illustrator 27.0.0, SVG Export Plug-In . SVG Version: 6.00 Build 0)  -->
<svg version="1.1" id="Layer_1" xmlns="http://www.w3.org/2000/svg" xmlns:xlink="http://www.w3.org/1999/xlink" x="0px" y="0px"
	 viewBox="0 0 200 200" style="enable-background:new 0 0 200 200;" xml:space="preserve">
<style type="text/css">
	.st0{fill:#FFFFFF;}
</style>
<g transform="translate(0.000000,200.000000) scale(0.100000,-0.100000)">
	<path class="st0" d="M845,1845c-509-96-821-616-663-1105c129-401,536-655,948-590c520,82,849,612,688,1110
		C1686,1671,1264,1924,845,1845z M1148,1724c245-51,449-222,540-454c39-100,46-143,46-270s-7-170-46-270c-74-187-231-344-418-418
		c-100-39-143-46-270-46s-170,7-270,46c-232,91-403,295-454,540C169,1369,631,1831,1148,1724z"/>
	<path class="st0" d="M940,1320v-260H680H420v-60v-60h260h260V680V420h60h60v260v260h260h260v60v60h-260h-260v260v260h-60h-60V1320z
		"/>
</g>
</svg>
